<svg width="568" height="181" viewBox="0 0 568 181" fill="none" xmlns="http://www.w3.org/2000/svg">
<path d="M19.9839 163H523.902C532.201 163 539 156.181 539 147.858V33.1418C539 24.8188 532.201 18 523.902 18H147.463C144.064 18 140.864 19.3036 138.365 21.61L12.3851 144.148C5.28626 150.967 10.0855 163 19.9839 163Z" fill="white"/>
<path d="M212.397 124.232C210.297 124.232 208.597 123.532 207.197 122.232L168.698 82.3329L138.299 112.432H183.398C185.198 112.432 186.097 113.332 186.097 115.132V121.532C186.097 123.332 185.198 124.232 183.398 124.232H117.7C116.4 124.232 115.8 123.632 115.8 122.532C115.8 122.332 115.9 122.132 115.9 121.832C116 121.532 116.2 121.232 116.5 121.032L178.798 58.4337C180.098 57.1337 181.398 56.5338 182.998 56.5338H189.597C191.297 56.5338 192.697 57.1337 193.997 58.4337L255.395 120.832C255.695 121.132 255.895 121.532 255.995 121.832C256.095 122.132 256.095 122.432 256.095 122.732C256.095 123.832 255.295 124.332 253.795 124.332H212.397V124.232Z" fill="#1283C5"/>
<path d="M308.294 100.232C306.594 100.232 305.694 99.3324 305.694 97.5324V91.1326C305.694 89.3327 306.594 88.4327 308.294 88.4327H320.993C322.593 88.4327 324.093 88.2327 325.393 87.9327C326.793 87.5328 327.893 87.0328 328.893 86.2328C329.893 85.4328 330.693 84.4329 331.293 83.1329C331.893 81.8329 332.193 80.233 332.193 78.3331C332.193 74.8332 331.093 72.2333 328.893 70.5333C326.693 68.8334 324.093 68.0334 320.893 68.0334H299.594V121.532C299.594 123.332 298.694 124.232 296.894 124.232H262.795C261.095 124.232 260.195 123.332 260.195 121.532V59.0337C260.195 57.3337 261.095 56.4338 262.795 56.4338H347.792C350.992 56.4338 354.092 56.9338 356.892 57.9337C359.692 58.9337 362.192 60.3336 364.292 62.2336C366.392 64.1335 367.992 66.4334 369.192 69.2334C370.392 72.0333 370.992 75.1332 370.992 78.633C370.992 82.2329 370.292 85.3328 368.992 88.0327C367.692 90.7327 365.892 92.9326 363.492 94.7325C361.192 96.5325 358.392 97.8324 355.292 98.8324C352.192 99.7324 348.792 100.232 345.093 100.232H308.294Z" fill="#1283C5"/>
<path d="M408.99 124.232C404.29 124.232 399.99 123.432 395.991 121.732C391.991 120.032 388.591 117.732 385.691 114.632C382.791 111.632 380.491 108.032 378.891 103.932C377.291 99.8323 376.491 95.2325 376.491 90.3327C376.491 85.5328 377.291 81.033 378.791 76.8331C380.391 72.7332 382.591 69.1334 385.391 66.0335C388.291 63.0336 391.691 60.6336 395.691 58.9337C399.69 57.2337 404.19 56.4338 409.09 56.4338H478.388C480.188 56.4338 481.088 57.3337 481.088 59.0337V65.4335C481.088 67.2334 480.188 68.1334 478.388 68.1334H432.389C430.189 68.1334 428.39 68.3334 426.89 68.8334C425.39 69.3334 424.19 70.1333 423.29 71.3333C422.39 72.5332 421.69 74.1332 421.29 76.1331C420.89 78.1331 420.69 80.633 420.69 83.7329V94.5325C420.69 97.9324 420.89 100.732 421.39 103.132C421.89 105.432 422.59 107.332 423.49 108.732C424.49 110.132 425.69 111.132 427.09 111.732C428.49 112.332 430.289 112.632 432.389 112.632H449.989V82.0329C449.989 80.233 450.889 79.333 452.589 79.333H480.988C482.788 79.333 483.688 80.233 483.688 82.0329V121.532C483.688 123.332 482.788 124.232 480.988 124.232H408.99Z" fill="#1283C5"/>
</svg>
