<svg width="15" height="21" viewBox="0 0 15 21" fill="none" xmlns="http://www.w3.org/2000/svg">
<path d="M6.55078 20.0566C0.990234 12.0586 0 11.2207 0 8.25C0 4.21289 3.23731 0.937498 7.3125 0.937498C11.3496 0.937498 14.625 4.21289 14.625 8.25C14.625 11.2207 13.5967 12.0586 8.03613 20.0566C7.69336 20.5898 6.89356 20.5898 6.55078 20.0566ZM7.3125 11.2969C8.98828 11.2969 10.3594 9.96387 10.3594 8.25C10.3594 6.57422 8.98828 5.20312 7.3125 5.20312C5.59863 5.20312 4.26563 6.57422 4.26563 8.25C4.26563 9.96387 5.59863 11.2969 7.3125 11.2969Z" fill="#0C79BE"/>
</svg>
