<svg width="220" height="220" viewBox="0 0 220 220" fill="none" xmlns="http://www.w3.org/2000/svg">
<path d="M163.9 160.3C166 160.3 167.4 161.5 167.5 163C167.5 164.1 166.6 165 165.5 165C163.1 165 163.7 163.2 162.7 163.2C160.46 163.2 158.701 166.643 157.025 170.329L156.767 170.897L156.383 171.752L156 172.6C155.1 174.4 154.7 174.7 154 174.7C152.3 174.7 152 170.2 151.3 168.2C149.9 171.2 147.1 174.7 142.7 174.7C140.1 174.6 137.6 173.3 137.6 169.3C137.6 164.8 140.6 161.6 143.6 161.6C145.9 161.6 147.4 164 147.4 165.6C147.3 170 141.4 170.1 141.4 171C141.4 171.9 142.9 172.2 143.8 172.2C147.6 172.2 150.1 167.3 151 163.9C151.2 163.3 151.7 162.1 152.8 162.1C154 162.1 153.4 169.5 155.1 169.5C156.2 169.5 157.6 160.3 163.9 160.3V160.3ZM104.7 150.2C106.7 150.1 108.3 152 108.5 155C108.9 163 106.2 166.2 104.8 169.1C105.1 170.2 107 172.1 108.8 172.1C109.5 172.1 110.3 171.8 110.5 171.5C110.3 171 110.2 170.5 110.2 169.6C110.2 165 113.3 161.2 115.9 161.2C118 161.2 119.2 163.9 119.2 165.7C119.2 167.8 117.4 169.5 114.7 171.1C115.2 171.6 116.1 171.9 116.8 171.9C120.6 172 122.7 167.4 124.2 163.3C124.5 162.5 125 161.4 125.9 161.4C127.5 161.4 128.1 171.8 130.8 171.8C131.9 171.8 132.9 169.5 132.9 167.7C133 166.3 132.5 166.2 132.5 164.3C132.5 162.2 133.6 160.4 135.2 160.4C136.2 160.4 136.5 161.3 136.5 162.4C136.4 166.6 133.3 174.4 128.7 174.4C125.3 174.4 125.6 168.6 124.4 168.6C123.1 168.6 121.2 174.4 114.5 174.4C113.4 174.4 112.2 173.9 111.3 172.8C109.7 173.9 108.3 174.3 106.8 174.3C104.3 174.3 103.2 171.8 102.2 171.8C101 171.8 99.6 174.3 95.6 174.3C92.4 174.3 91.8 170.1 90.7 170.1C89.7 170.1 88.1 174.3 86.4 174.3C85.034 174.3 84.192 172.563 83.397 170.784L83.16 170.25C82.409 168.568 81.659 167 80.5 167C79.591 167 77.7 168.693 75.786 170.437L75.264 170.913C73.355 172.653 71.513 174.296 70.7 174.2C70 174.1 69.7 173.7 69.8 173C69.9 172.1 70.8 169.6 71.1 168.5C71.7 166.5 72.2 164.3 72.5 163.6C72.7 162.9 73.5 162.4 74.1 162.5C74.4 162.5 74.5 163 74.6 163.5C74.9 165.1 75.4 166.8 75.9 166.8C76.8 166.8 80 161 81.8 161C84.1 161 84.3 170.2 87.3 170.2C88.3 170.2 89 169 89.7 167.6C89.8 165.2 90.5 161.7 92.5 161.7C93.9 161.7 94.5 164.8 93.5 167.5C93.4 170.7 95.6 171.5 97 171.5C98 171.5 99.7 171.2 101.1 169.1C100.3 167.4 99.8 163.9 99.7 162.7C99.4 156.3 101.9 150.3 104.7 150.2V150.2ZM66.2 152.2C67.4 151.8 67.9 152.4 68.4 153.8C69 155.9 69 158.7 68.8 162.6C68.5 168 65.7 174.5 58.8 174.3C52.8 174.2 50.2 170.4 50 164.7C49.9 162 50.1 159.3 51.3 155.5C52 153.5 52.5 152.8 54.4 152.4C55.9 152.1 55.7 153.6 55.4 155.4C54.6 159.3 54.3 161.2 54.5 165.7C54.8 170.4 57 172.3 59.4 172.3C63.1 172.4 64.7 169.5 65.4 165.2C65.9 161.8 65.5 160.2 65.2 159.1C65 158.5 64.4 157.2 64.3 156.2C63.9 154 65.1 152.5 66.2 152.2V152.2ZM114.9 164.3C114.3 164.2 112.9 164.9 112.9 167C112.9 168.7 113.5 169.5 113.8 169.8C115.8 169.2 116.3 167.6 116.2 166.3C116.2 165.2 115.6 164.3 114.9 164.3V164.3ZM142.7 164.2C140.1 164.2 140.3 168.3 140.7 169.2C142.6 168.9 143.9 167.8 144.2 166.8C144.5 165.8 144.1 164.2 142.7 164.2V164.2ZM104.922 154.093L104.8 154.1C103.5 154.2 102.9 158.3 103.1 162.6C103.3 165.4 103.7 165.8 104.1 165.8C104.8 165.8 106.6 160.7 106.4 156.7C106.3 154.9 105.8 154 104.8 154.1L104.922 154.093ZM93.3 151C94.5 151 95.3 151.7 95.4 152.8C95.6 154.3 94.5 155.9 93 155.9C91.7 155.9 91.1 155 90.9 153.9C90.8 152.3 92 151 93.3 151Z" fill="#11109C"/>
<path fill-rule="evenodd" clip-rule="evenodd" d="M118.7 129.2C118.3 128.5 118.6 127.3 117.5 127.3C116.8 127.3 116.7 127.9 116.6 128.4C115.1 127.9 113.8 127.7 112.6 127.7C111.8 127.7 111.1 127.8 110.4 128C110 127.3 108.2 125.9 106.7 125.4C106.1 128.7 103.2 131.2 98.9001 131.6C98.7001 133.7 97.0001 134.3 95.7001 134.3C94.8001 134.3 93.3001 134 93.2001 133.6C92.7001 130.5 90.4001 128.8 89.3001 128.4C89.3001 128.7 89.4001 129.1 89.4001 129.4C89.4001 132 87.6001 133.6 84.3001 133.6C83.8001 133.6 83.1001 133.6 82.6001 133.5C86.4001 137.7 89.1001 136.2 90.8001 137C93.1001 138 95.0001 141.3 102.4 141.3C105.1 141.3 107.8 140.2 109.6 139.1C109.9 140.2 111 141.2 112.9 141.2C116 141.2 117.8 140.2 117.8 139.4C117.8 139.2 117.8 138.9 117.2 138.9C116.7 138.9 116.7 139 115 139C113 139 109.8 138.2 108.3 134.7C108 134.1 107.6 134.1 107.5 134.1C106.5 134.1 104.9 137.7 98.6001 137.7C95.9001 137.7 94.7001 136.7 94.7001 136.5C94.7001 136.5 94.7001 136.4 94.8001 136.4C95.1001 136.4 96.0001 136.5 97.2001 136.5C101.2 136.5 104.4 134.6 106.4 132.5C107.1 131.7 107.4 131.6 108 131.6C108.5 131.6 109 132 109.3 132.7C110.2 135 112.3 136.9 114.5 136.9C117.5 136.9 117.6 131.7 118.3 131.4C118.4 131.4 118.6 131.5 118.7 131.5C119.1 131.5 119.6 131.2 119.6 130.6C119.7 129.8 118.8 129.6 118.7 129.2ZM113.7 133.1C112.9 133.1 112.3 132.5 112.3 131.7C112.3 130.9 112.9 130.2 113.7 130.2C114.5 130.2 115.1 130.9 115.1 131.6C115.2 132.5 114.5 133.1 113.7 133.1Z" fill="#11109C"/>
<path fill-rule="evenodd" clip-rule="evenodd" d="M103.3 119.2C104 119.2 104.3 119.8 104.4 120.4C104.6 120.2 104.9 120.1 105.2 120.1C105.9 120.1 106.3 120.6 106.3 121.2C106.3 121.6 106.1 121.9 105.8 122.1C106.2 122.3 106.5 122.6 106.5 123C106.5 123.5 106.1 123.9 105.5 123.9C105 123.9 104.6 123.3 104.1 123.3C103.8 123.3 103.4 123.4 103.3 123.6C103.5 124.1 103.6 124.5 103.6 125C103.6 127.6 100.1 129.7 96.3999 129.7C92.7999 129.7 91.3999 127.6 91.3999 126.7C91.3999 126.5 91.4999 126.4 91.7999 126.4C92.3999 126.4 92.4999 126.6 94.1999 126.6C98.0999 126.6 96.6999 121.6 100.4 121.6C100.9 121.6 102 121.9 102.4 122.6C102.7 122.3 102.8 121.9 102.8 121.6C102.8 121 102.4 120.6 102.4 120.1C102.4 119.6 102.8 119.3 103.3 119.2Z" fill="#11109C"/>
<path fill-rule="evenodd" clip-rule="evenodd" d="M80.1002 116.6C84.5002 116.6 87.9002 120.3 87.9002 125.6C87.9002 128 86.6002 131.5 81.3002 131.5C75.0002 131.5 71.2002 126.2 71.2002 122.8C71.2002 119.9 73.1002 118.1 74.3002 117.8C73.0002 123 75.9002 128 81.7002 128C84.6002 128 86.0002 126.6 86.0002 124.1C86.0002 121.3 84.1002 118.6 80.8002 118.6C79.2002 118.6 78.0002 119.5 78.0002 120.8C78.0002 122.9 79.8002 124.2 81.7002 124.2C82.9002 124.2 83.7002 123.7 83.7002 122.9C83.7002 122.8 83.7002 122.6 83.6002 122.5C83.5002 122.6 83.2002 122.6 82.8002 122.6C81.3002 122.6 80.1002 121.8 80.1002 120.9C80.1002 120.2 80.6002 119.8 81.2002 119.8C83.4002 119.8 84.9002 122 84.9002 123.6C84.9002 125.2 83.7002 126.6 81.7002 126.6C77.4002 126.6 75.5002 123.1 75.5002 120.8C75.6002 118.3 77.7002 116.6 80.1002 116.6Z" fill="#11109C"/>
<path fill-rule="evenodd" clip-rule="evenodd" d="M132.8 128.4C131.9 129.1 129.7 130.7 126 130.7C124 130.7 123.2 130.1 122.9 130.1C122.5 130.1 122.1 130.5 121.7 130.9C120.8 131.9 119.7 133.7 119.7 135.8C119.7 137.2 120.8 138.6 122.9 138.6C129.7 138.6 134.7 134.4 134.7 131.1C134.8 129.2 133.6 128.4 132.8 128.4ZM129.3 134.9L125.4 136C125.7 135.2 125.9 134.3 125.9 133.4C125.9 133.1 125.9 132.9 125.8 132.6H126.3C129.2 132.6 130.4 131.5 130.6 131.5C130.8 131.5 131 131.6 131 132.2C131 133 130.6 134.1 129.3 134.9Z" fill="#11109C"/>
<path fill-rule="evenodd" clip-rule="evenodd" d="M127 129.2C128.6 129.2 130 128.8 130.9 128C131.2 127.8 131.3 127.4 131.3 127V126.2C131.3 125.2 129.7 124.6 127.5 124.6C124.9 124.6 123.5 125.8 123.5 126.3V127.9C123.5 128.5 125 129.2 127 129.2Z" fill="#11109C"/>
<path fill-rule="evenodd" clip-rule="evenodd" d="M139.2 112.2C133.9 112.2 135.3 116.7 129.1 118.1C128 118.3 127.6 118.7 127.6 119.2C127.6 120.1 128.1 121.3 128.8 121.3C131.5 121.3 135.6 115.8 136.4 115.8C136.7 115.8 137 115.8 137 116.6C137 118.6 131.2 121.2 131.2 122.6C131.2 123.4 133.2 125.2 135.3 125.2C138.2 125.2 140.8 119.4 141.4 119.4C141.9 119.4 142 119.7 142 120.1C142 121.7 140 124.8 136.6 126.1C135.9 126.4 135.8 126.7 135.8 126.9C135.8 127.7 136.7 128.8 137.5 128.8C138.5 128.8 145.2 123 145.2 118.4C145.4 114.1 142.1 112.2 139.2 112.2ZM141.6 117.2C141.2 117.2 140.8 117.1 140.6 116.9C140.1 116.7 139.3 116 139.3 115C139.3 114 139.8 113.7 140.3 113.7C141.8 113.7 143.5 115 143.5 116.1C143.5 117 142.7 117.2 141.6 117.2Z" fill="#11109C"/>
<path fill-rule="evenodd" clip-rule="evenodd" d="M91.6 119.6H90.7C90.4 119.6 89.9 119.5 89.6 119.3C89 118.8 88.8 116.1 87.8 114.5C86.6 112.7 85.3 112.2 83.6 112.2C82.4 112.2 81 112.9 81 113.9C81 114.5 81.3 114.9 83.6 115.5C86.5 116.2 87.9 117.8 88.2 119.6C88.5 121.4 88.8 122.8 89.5 123.5C90.4 124.5 92.1 125.4 93.7 125.4C95 125.4 96 125 96 123.8C95.9 122.5 94.1 119.6 91.6 119.6ZM93.5 123.5C92.4 123.5 90.8 122.4 90.8 121.7C90.8 121.2 91.3 120.9 91.7 120.9C92.6 120.9 94.2 122 94.2 122.9C94.2 123.2 94 123.5 93.5 123.5Z" fill="#11109C"/>
<path fill-rule="evenodd" clip-rule="evenodd" d="M113.4 115.9C112.7 115.9 112.7 117 112.7 117.4C112.7 117.8 112.7 117.9 112.4 117.9C112.1 117.9 111.9 117.8 111.6 117.8C111.4 117.8 111.2 118 111.2 118.3C111.2 119.8 113.1 121 115 121C117.5 121 118.7 119.9 119.4 119.9C119.7 119.9 119.8 120.2 119.8 120.4C119.8 120.8 119.4 121.3 119.4 121.5C119.4 122.1 120.6 121.6 120.6 122.3C120.6 123.2 119.1 123.9 116.8 123.9C112.3 123.9 109.4 120.8 109.4 117.9C109.4 112.5 115.2 114.2 115.2 112.1C115.2 111.4 114.5 111 114 111C114.6 110.2 115.4 110.1 116.2 110.1C116.8 110.1 117.4 110.2 117.9 110.2C118.6 110.2 119.3 109.9 119.3 109.1C119.3 108.6 118.9 108 117.2 107.8C117.4 106.7 119.7 107.3 119.7 106.3C119.7 105.6 118.4 105.1 116.8 105.1C110.6 105.1 106.2 110.2 106.2 115.7C106.2 120.7 109.8 126.2 116.5 126.2C123 126.2 126.1 120.9 126.1 116.9C124.9 118 121.7 118.3 120.1 118.3C115.4 118.4 114.1 115.9 113.4 115.9Z" fill="#11109C"/>
<path fill-rule="evenodd" clip-rule="evenodd" d="M118.5 116.6C119.5 116.6 120.2 115.8 120.2 114.9C120.2 113.5 118.8 112.2 116.7 112.2C117.1 112.6 117.2 112.9 117.2 113.3C117.2 113.8 116.9 114.4 116.9 115C116.9 115.9 117.5 116.6 118.5 116.6ZM128.6 109.8C128.9 110.2 129 110.6 129 111C129 112 128.3 113 128.3 114C128.3 115.2 129.2 116.2 130.6 116.2C132.1 116.2 133.1 115 133.1 113.6C133 111.6 131.3 110 128.6 109.8ZM121.4 106C121.9 106.6 122.1 107.2 122.1 107.9C122.1 109.5 120.9 111.1 120.9 112.6C120.9 114.6 122.2 115.9 124.1 115.9C126.1 115.9 127.3 114.2 127.3 112.3C127.3 109.6 125.2 106.7 121.4 106ZM124.2 111.7C123.7 111.7 123.3 111.3 123.3 110.8C123.3 110.5 123.5 110.1 123.5 109.7C123.6 109.2 123.5 108.8 123.8 108.8C124.4 108.8 125.1 109.9 125.1 110.6C125.1 111.2 124.8 111.7 124.2 111.7Z" fill="#11109C"/>
<path fill-rule="evenodd" clip-rule="evenodd" d="M101.1 107.4C99.5002 106.8 98.8002 105.9 98.4002 104C97.6002 105.1 97.2002 106.1 97.2002 106.7C97.2002 109.1 100.5 109.1 100.5 110.7C100.5 111.6 98.8002 112.6 96.6002 112.6C94.1002 112.6 92.3002 112.2 90.7002 110.6C90.3002 110.2 90.1002 109.8 89.6002 109.8C89.0002 109.8 88.7002 110.8 88.7002 111.8C88.7002 115.2 92.0002 119.3 96.6002 119.3C102.3 119.3 104.6 115.4 104.6 112.2C104.7 110.3 104.3 108.6 101.1 107.4ZM99.5002 117C99.0002 117 98.9002 116.8 98.9002 116.3C98.9002 116 99.0002 115.4 99.0002 114.9C99.0002 113.7 99.5002 113.8 100.7 113.2C101.6 112.8 101.9 112.3 102.2 112.3C102.5 112.3 102.8 112.5 102.8 113C102.8 114.8 100.8 117 99.5002 117Z" fill="#11109C"/>
<path fill-rule="evenodd" clip-rule="evenodd" d="M93.8003 101.6C93.2003 101.6 92.2003 101 91.2003 100.2C90.1003 101.3 89.3003 102.8 89.3003 104.5C89.3003 108 93.0003 110.9 96.6003 110.9C97.2003 110.9 97.8003 110.8 98.4003 110.7C96.4003 110.5 95.2003 109 95.2003 107.2C95.2003 104.9 97.8003 102.8 97.8003 101C97.8003 98.7997 95.1003 98.5997 95.1003 96.7997C95.1003 95.2997 97.7003 94.1997 97.6003 91.7997C97.6003 90.3997 96.2003 88.6997 94.3003 87.6997C94.6003 88.2997 94.8003 89.0997 94.8003 89.5997C94.8003 92.3997 89.4003 93.5997 89.4003 95.7997C89.4003 98.5997 94.6003 99.6997 94.6003 101C94.6003 101.3 94.4003 101.6 93.8003 101.6Z" fill="#11109C"/>
<path fill-rule="evenodd" clip-rule="evenodd" d="M148.3 103.4C150.1 103.4 151.5 105.7 151.5 108.4C151.5 111.3 150.1 114.4 147.7 116.6C147.7 111.8 141.8 113.3 141.8 109.8C141.8 108.3 142.9 107.3 144.2 107.3C145.3 107.3 146.2 107.6 146.9 108.3C146.3 107.7 145.9 106.8 145.9 106C145.9 104.7 146.7 103.4 148.3 103.4Z" fill="#11109C"/>
<path fill-rule="evenodd" clip-rule="evenodd" d="M77.5001 108.3C77.0001 108.4 76.6001 108.5 76.3001 108.8C76.0001 107.7 75.0001 106.7 73.6001 107C72.4001 107.2 71.5001 108.3 71.7001 109.7C71.7001 109.9 71.8001 110.2 71.9001 110.4C71.9001 110.4 71.7001 110.4 71.5001 110.5C70.5001 110.7 69.3001 111.7 69.5001 113.2C69.7001 114.5 70.8001 115.4 72.1001 115.3C72.6001 115.2 73.0001 115.1 73.3001 114.9C73.6001 116.1 74.6001 116.8 75.9001 116.7C77.2001 116.5 78.1001 115.4 78.0001 114.1C78.0001 113.7 77.9001 113.5 77.8001 113.3H78.1001C79.4001 113 80.3001 112 80.2001 110.7C79.8001 109.1 78.7001 108.1 77.5001 108.3ZM74.9001 113.2C74.1001 113.3 73.5001 112.7 73.4001 112C73.3001 111.2 73.8001 110.5 74.6001 110.4C75.4001 110.3 76.0001 110.9 76.1001 111.6C76.2001 112.4 75.7001 113.1 74.9001 113.2Z" fill="#11109C"/>
<path fill-rule="evenodd" clip-rule="evenodd" d="M142.3 102.3C142.3 101.8 143.5 100.6 143.5 100.2C143.5 100.1 143.4 99.9998 143.3 99.9998C142.8 99.9998 141.1 101.3 138.6 101.3C137.6 101.3 136.9 101.2 136.9 100.4C136.9 99.6998 137.5 99.0998 138.5 98.6998C139.6 98.1998 141.8 98.1998 141.8 97.6998C141.8 97.2998 139.7 97.2998 139.7 96.8998C139.7 96.3998 140.5 95.1998 140.5 94.6998C140.5 94.6998 140.5 94.4998 140.4 94.4998C140 94.4998 139 95.6998 138.4 95.6998C137.8 95.6998 137.3 94.1998 136.8 94.1998C136.7 94.1998 136.5 94.2998 136.5 94.5998C136.5 95.1998 136.8 96.2998 136.8 97.7998C136.8 99.0998 136.1 100.2 135.4 100.2C134.5 100.2 134.2 99.0998 134.2 98.1998C134.2 96.8998 134.9 95.3998 134.9 93.9998C134.9 93.6998 134.8 93.5998 134.6 93.5998C134.1 93.5998 133.3 95.0998 132.7 95.0998C132.3 95.0998 131.6 93.2998 131 93.2998C130.9 93.2998 130.8 93.5998 130.8 93.9998C130.8 94.4998 130.9 95.1998 130.9 95.4998C130.9 95.8998 130.4 95.9998 129.8 95.9998C129.4 95.9998 128.6 95.9998 128.6 96.2998C128.6 96.5998 129.4 96.8998 130.1 97.3998C131.4 98.2998 133.5 99.1998 133.5 101.3C133.5 103.2 130.8 104.5 128.9 104.9C128 105 127.1 105.2 127.1 105.5C127.1 105.9 129.5 106 129.5 106.5C129.5 106.8 128.4 108.2 128.4 108.6C128.4 108.7 128.5 108.7 128.5 108.7C128.9 108.7 130.1 107.7 130.6 107.7C131.3 107.7 131.2 109.8 131.7 109.8C132.3 109.8 132.1 106.7 132.3 105.9C132.7 104.5 133.7 103.1 134.6 103.1C135.7 103.1 135.8 105 135.8 105.9C135.8 107.7 134.5 109.6 134.5 110.5C134.5 110.6 134.6 110.7 134.7 110.7C135.1 110.7 136 109.5 136.5 109.5C137 109.5 138.1 111.5 138.5 111.5C138.7 111.5 138.8 111.3 138.8 111.1C138.8 110.5 138.5 109.5 138.5 108.9C138.5 108.2 140.8 108.6 140.8 108.1C140.8 107.9 139.8 107.5 139.2 107.1C137.9 106.3 136.4 104.6 136.4 103.2C136.4 102.7 136.7 102.3 137.1 102.3C139.9 102.3 141.1 106.6 141.6 106.6C142.1 106.6 141.8 104.7 142 104.4C142.1 104.3 142.4 104.2 142.7 104.2C143.2 104.2 143.8 104.3 144.2 104.3C144.5 104.3 144.6 104.3 144.6 104.2C144.5 103.6 142.3 102.9 142.3 102.3Z" fill="#11109C"/>
<path fill-rule="evenodd" clip-rule="evenodd" d="M131.2 101.1C131.2 100.2 127.3 97.1997 126.5 97.1997C126.3 97.1997 126.2 97.2997 126.2 97.4997C126.2 97.7997 126.3 98.1997 126.3 98.4997C126.3 99.1997 126 99.2997 125.3 99.2997C124.5 99.2997 123.2 98.9997 123.2 97.6997C123.2 95.1997 128 95.7997 128.5 93.4997C126.4 93.4997 125.4 92.0997 124 92.0997C123.5 92.0997 122.5 92.3997 122.5 93.6997C122.5 94.0997 122.6 94.7997 122.6 95.3997C122.6 95.9997 122.5 96.3997 121.8 96.3997C121.2 96.3997 121.1 95.6997 121.1 94.8997C121.1 94.1997 121.2 93.3997 121.2 92.8997C121.2 89.1997 117.1 90.6997 116.7 87.6997C115.7 89.4997 115.4 90.7997 115.4 91.8997C115.4 95.7997 120.7 95.3997 120.7 98.0997C120.7 98.7997 120.2 99.1997 119.7 99.1997C118.8 99.1997 118.2 97.2997 116.8 97.2997C116.1 97.2997 115.6 97.7997 115.6 98.8997C115.6 99.6997 115.8 100.3 115.8 101.1C115.8 102.7 115.1 103.4 114.4 104.1C119.2 103.7 119.5 100.1 120.9 100.1C121.3 100.1 121.5 100.4 121.5 100.6C121.5 101.2 120.5 102.2 120.5 103.2C120.5 104.5 122 105.2 123 105.2C124.2 105.2 124.6 104.8 124.6 104C124.6 103.1 123 101.9 123 100.9C123 100.4 123.5 100.3 124.2 100.3C125.7 100.3 126.2 100.5 126.2 100.8C126.2 101.2 125.6 102 125.6 102.2C125.6 102.3 125.7 102.6 126 102.6C127.1 102.8 131.2 101.9 131.2 101.1Z" fill="#11109C"/>
<path fill-rule="evenodd" clip-rule="evenodd" d="M80.6999 87.6001C79.9999 88.9001 79.7999 90.6001 79.7999 91.6001C79.7999 97.7001 87.0999 103.4 87.0999 107.2C87.0999 108.7 85.9999 110.5 83.9999 110.5C82.1999 110.5 81.1999 109.1 81.1999 107.9C81.1999 107 81.7999 106.2 82.0999 106.2C82.1999 106.2 82.1999 106.3 82.1999 106.5C82.1999 107 82.5999 107.7 83.3999 107.6C84.1999 107.6 84.5999 107.1 84.5999 106.4C84.5999 103.4 78.5999 98.2001 78.5999 91.1001C78.2999 91.9001 77.8999 92.9001 77.8999 94.4001C77.8999 97.8001 80.3999 101.4 80.3999 104.7C80.3999 106 79.3999 107.2 78.0999 107.2C76.5999 107.2 76.0999 106 76.0999 105.3C76.0999 104.8 76.2999 104.3 76.4999 104.3C76.6999 104.3 76.5999 105.1 77.3999 105.1C78.2999 105.1 78.5999 104.5 78.5999 103.4C78.5999 100.4 76.8999 98.3001 76.8999 95.2001C76.8999 94.7001 76.8999 94.2001 76.9999 93.8001C76.0999 94.9001 75.9999 96.5001 75.9999 97.9001V101.6C75.9999 104.1 74.7999 105.2 73.2999 105.2C72.2999 105.2 71.3999 104.4 71.3999 103.1C71.3999 102.9 71.4999 102.3 71.6999 102.3C71.9999 102.3 72.1999 103.1 72.9999 103.1C74.5999 103.1 74.6999 101.6 74.6999 98.5001C74.4999 94.7001 75.8999 90.6001 80.6999 87.6001Z" fill="#11109C"/>
<path fill-rule="evenodd" clip-rule="evenodd" d="M70.8 85.7998C71.3 85.7998 71.5 86.2998 71.5 86.6998C71.5 88.3998 69.3 93.3998 69.3 94.7998C69.3 94.9998 69.4 95.1998 69.6 95.1998C70.5 95.1998 72.3 91.2998 72.9 89.3998C73.2 88.3998 73.7 87.8998 74.1 87.8998C74.5 87.8998 74.8 88.2998 74.8 89.0998C74.8 90.9998 73 95.5998 71.4 98.5998C70.2 101 68.2 104.4 68.2 106.3C68.2 107.3 68.4 108.3 69.8 109.5C67.5 109.4 66.5 109.1 65.6 107.4C61.7 115 72.8 114.3 69 121.1C68.3 119.9 62.8 118.6 62.8 111.5C62.8 105.4 68.3 101.8 68.3 99.1998C68.3 98.6998 68.1 98.2998 67.6 97.8998C66.4 96.8998 66.4 96.0998 65.4 96.0998C64.7 96.0998 63.9 97.6998 64.7 99.0998C65 99.5998 65.2 99.8998 65.2 100.3C65.2 101.3 63.6 104 62.5 104C61.4 104 60.5 101.2 60.5 96.7998C60.5 92.8998 61.4 88.8998 62.5 88.8998C62.8 88.8998 62.9 89.0998 62.9 89.3998C62.9 89.8998 62.8 90.7998 62.8 92.3998C62.8 94.0998 63.2 94.1998 63.5 94.1998C64.7 94.1998 64.5 86.6998 66.5 86.6998C67 86.6998 67.1 87.1998 67.1 87.6998C67.1 89.3998 66.3 91.8998 66.3 93.1998C66.3 93.8998 66.5 94.0998 66.8 94.0998C67.8 93.9998 69.3 85.7998 70.8 85.7998Z" fill="#11109C"/>
<path fill-rule="evenodd" clip-rule="evenodd" d="M152.1 95.6C150.4 95.6 149.5 98.6 147.8 98.7C148.8 94.4 153.1 92.1 153.1 88.1C153.1 83.5 149.3 81.9 147.7 80.9C145.1 77.1 143.2 74.1 138.9 74.1C137.1 74.1 135.9 74.4 134.7 74.4C132.3 74.4 131.5 73.5 131.4 73.5C131.4 73.5 131.3 73.5 131.3 73.7C131.3 77.1 133.1 84.7 140.7 84.7C144.8 84.7 146.5 83.1 147.5 83.1C148.5 83.1 151.8 84.2 151.8 88.1C151.8 90.2 150.1 92.4 149.5 92.4C148.9 92.4 148.3 91.4 148.3 90.4C148.3 89.3 148.9 87.2 148.9 85.9C148.9 85.4 148.8 85.2 148.5 85.2C147.9 85.2 144.8 87.2 144.8 89.6C144.8 91.7 147.9 93 149.1 93.6C147.9 95.5 147.2 96.8 146.7 98.6C146.7 97.2 145.4 94.5 145 93.3C143.1 87.9 142.4 86.9 138.3 86.4C138.9 88.6 145.9 93.8 145.9 99.1C145.9 99.4 145.9 99.9 145.8 100.1C143.7 93.9 140.1 92.4 138.8 90.9C136.7 88.5 137.9 86.2 134.5 84.9C134.7 85.2 134.8 85.6 134.8 85.9C134.8 87.1 134.2 88.5 134.2 89.5C134.2 93.3 138.5 92.1 141.1 94.2C143.6 96.2 145 99.5 146 103.2C147 101.6 147.6 99.6 149.3 99.6C150.4 99.6 150.8 101 150.8 102.1V102.6C152.5 101.1 153.4 98.7 153.4 97.1C153.3 96.3 152.9 95.6 152.1 95.6ZM145.3 81.5C144.9 81.5 144.3 81.3 143.8 81.3C142.6 81.3 141.7 83 141.1 83C140.9 83 140.8 82.8 140.8 82.6C140.8 81.9 142 81.1 142 80.6C142 80.3 141.5 80.2 141.3 80.2C140.1 80.2 138.4 81.9 137.4 81.9C137.2 81.9 137 81.8 137 81.6C137 81.1 138.3 80.5 138.3 80C138.3 79.5 137.8 79.5 137.4 79.5C136.8 79.5 135.6 79.8 134.9 79.8C134.5 79.8 134.2 79.7 134.2 79.4C134.2 78.7 136.5 79.1 136.5 78.3C136.5 77.9 135.8 77.1 135.8 76.7C135.8 76.5 136 76.4 136.2 76.4C137 76.4 137.9 78.7 138.8 78.7C139.2 78.7 139.3 78.4 139.3 77.9C139.3 77.4 139.2 77.2 139.2 76.8C139.2 76.4 139.4 76.3 139.5 76.3C140.1 76.3 140.6 79.5 142.3 79.5C143 79.5 142.5 77.5 143.2 77.5C143.6 77.5 143.7 78.1 143.7 78.4C143.9 80.5 145.8 80.6 145.8 81.4C145.7 81.3 145.6 81.5 145.3 81.5Z" fill="#11109C"/>
<path fill-rule="evenodd" clip-rule="evenodd" d="M121.4 76.8C122.2 76.8 122.8 77.4 122.8 78.1C122.8 78.8 122.2 79.4 121.4 79.4C120.7 79.4 120 78.8 120 78.1C120 77.4 120.7 76.8 121.4 76.8ZM130.6 89.4C129.9 89.4 129.2 90 129.2 90.7C129.2 91.5 129.9 92 130.6 92C131.4 92 132 91.4 132 90.6C132 89.9 131.4 89.4 130.6 89.4ZM126 86.9C124.6 86.9 123.5 88 123.5 89.3C123.5 90.6 124.6 91.7 126 91.7C127.4 91.7 128.5 90.6 128.5 89.3C128.5 88 127.4 86.9 126 86.9ZM121.6 85.8C120.8 85.8 120.2 86.4 120.2 87.2C120.2 88 120.9 88.6 121.6 88.6C122.4 88.6 123 88 123 87.2C123 86.4 122.4 85.8 121.6 85.8ZM130.4 88C131.3 88 132.1 87.3 132.1 86.4C132.1 85.5 131.3 84.8 130.4 84.8C129.5 84.8 128.7 85.5 128.7 86.4C128.7 87.2 129.5 88 130.4 88ZM117.4 82.9C116.3 82.9 115.3 83.8 115.3 84.9C115.3 86 116.2 86.9 117.4 86.9C118.5 86.9 119.5 86 119.5 84.9C119.4 83.8 118.5 82.9 117.4 82.9ZM124.9 84.4C124.9 85.2 125.5 85.8 126.3 85.8C127.1 85.8 127.7 85.2 127.7 84.4C127.7 83.6 127.1 83 126.3 83C125.5 83 124.9 83.7 124.9 84.4ZM122.1 84.8C123.3 84.8 124.3 83.9 124.3 82.7C124.3 81.5 123.3 80.6 122.1 80.6C120.9 80.6 119.9 81.5 119.9 82.7C119.9 83.8 120.8 84.8 122.1 84.8ZM130.1 83.4C130.9 83.4 131.6 82.7 131.6 81.9C131.6 81.1 130.9 80.4 130.1 80.5C129.3 80.5 128.6 81.2 128.6 82C128.6 82.8 129.3 83.4 130.1 83.4ZM118 81.4C118.8 81.4 119.4 80.8 119.4 80C119.4 79.2 118.8 78.6 118 78.6C117.2 78.6 116.6 79.2 116.6 80C116.5 80.8 117.2 81.4 118 81.4ZM126.2 81.3C127.5 81.3 128.5 80.3 128.5 79.1C128.5 77.9 127.5 76.9 126.2 76.9C124.9 76.9 123.9 77.9 123.9 79.1C123.9 80.3 124.9 81.3 126.2 81.3ZM127.9 76.1C128.7 76.1 129.3 75.5 129.3 74.8C129.3 74.1 128.7 73.5 127.9 73.5C127.1 73.5 126.5 74.1 126.5 74.8C126.6 75.6 127.2 76.1 127.9 76.1Z" fill="#11109C"/>
<path fill-rule="evenodd" clip-rule="evenodd" d="M87.4999 77.9C88.3999 77.9 89.9999 79.4 90.3999 81C90.1999 81 89.9999 80.9 89.8999 80.9C88.6999 80.9 88.0999 82 87.1999 83.9C89.2999 82.5 91.1999 81.4 93.3999 81.4C95.2999 81.4 96.7999 82.5 96.7999 84.2C96.7999 84.9 96.3999 85.7 95.9999 86.5C95.6999 84.9 94.3999 84.2 92.0999 84.2C90.7999 84.2 89.1999 84.4 87.8999 84.9C91.9999 85.5 92.5999 86.9 92.5999 88.2C92.5999 90.4 90.2999 91.5 88.7999 92.2C88.8999 91.6 89.0999 90.9 89.0999 90.2C89.0999 88.9 88.5999 87.3 86.4999 85.9C86.1999 87.3 84.9999 88.2 84.9999 89.3C84.9999 89.7 85.2999 89.9 85.4999 89.9C85.4999 90.5 85.1999 92.3 85.1999 92.8C85.1999 93.7 85.3999 93.9 85.8999 94C86.1999 94.8 86.1999 96.2 86.3999 96.9C86.4999 97.3 86.7999 97.4 87.0999 97.4C87.3999 98.1 87.7999 99.2 88.3999 99.6C88.4999 99.7 88.6999 100 88.6999 100.2C88.6999 100.8 87.6999 101.5 87.0999 101.5C86.8999 101.5 86.5999 101.4 86.2999 100.7C86.0999 100.2 84.2999 99.1 84.1999 98.5C84.2999 98.4 84.3999 98.2 84.3999 97.9C84.3999 96.9 82.7999 95.8 82.7999 94.2C82.9999 94.1 83.1999 93.8 83.1999 93.5C83.1999 92.6 82.2999 90.9 82.2999 89.7C82.6999 89.7 82.8999 89.7 82.8999 89.1C82.9999 87.9 83.1999 86.2 84.2999 85.2C83.9999 85.2 83.6999 85.1 83.2999 85.1C81.0999 85.1 77.7999 86.3 76.4999 89.1C76.3999 88.7 76.3999 88.3 76.3999 87.9C76.3999 85.6 77.7999 84.1 78.8999 83.6C79.3999 83.4 80.0999 83.3 80.7999 83.3C81.9999 83.3 83.2999 83.5 84.6999 83.8C83.4999 82.2 81.5999 81.1 79.9999 81.1C79.2999 81.1 78.6999 81.3 78.4999 81.9C78.3999 81.6 78.3999 81.1 78.3999 80.7C78.3999 79 78.9999 78 80.4999 78C82.6999 78 84.6999 80.6 85.7999 83V82.7C85.7999 79.3 85.8999 77.6 87.2999 77.5L87.4999 77.9Z" fill="#11109C"/>
<path fill-rule="evenodd" clip-rule="evenodd" d="M59.7002 83.5999C59.7002 86.2999 60.6002 87.5999 62.1002 87.5999C63.3002 87.5999 64.9002 86.7999 66.8002 85.1999C65.3002 85.4999 64.2002 85.6999 63.2002 85.6999C61.9002 85.6999 60.8002 85.1999 59.7002 83.5999ZM70.1002 79.8999C69.2002 80.0999 67.5002 81.0999 67.5002 82.8999C67.5002 84.1999 68.5002 84.9999 69.8002 84.9999C70.5002 84.9999 71.0002 84.8999 71.3002 84.5999C70.3002 83.5999 69.9002 82.5999 69.9002 81.4999C69.9002 80.7999 70.0002 80.2999 70.1002 79.8999ZM73.2002 76.9999C72.4002 77.8999 71.5002 79.4999 71.5002 81.0999C71.5002 82.9999 72.7002 84.5999 74.6002 84.5999C76.4002 84.5999 77.3002 83.0999 77.3002 81.5999C77.4002 79.1999 75.1002 77.4999 73.2002 76.9999ZM61.0002 80.3999V80.8999C61.0002 82.5999 61.9002 83.4999 63.2002 83.4999C64.1002 83.4999 65.2002 82.9999 66.2002 81.7999C65.8002 81.8999 65.3002 81.8999 64.9002 81.8999C63.4002 81.9999 61.9002 81.5999 61.0002 80.3999ZM68.4002 71.1999C67.2002 71.1999 65.7002 71.2999 64.1002 72.2999C60.9002 74.2999 61.3002 77.4999 60.8002 78.3999C60.7002 78.4999 60.7002 78.5999 60.7002 78.7999C60.7002 79.0999 61.1002 79.4999 61.4002 79.4999C61.7002 79.4999 61.9002 79.3999 62.0002 79.3999C62.9002 79.3999 63.9002 79.9999 65.4002 79.9999C66.3002 79.9999 67.3002 79.6999 68.5002 79.0999C71.2002 77.7999 72.2002 74.5999 72.2002 74.0999C72.2002 73.3999 71.6002 73.4999 71.2002 72.8999C70.7002 72.2999 70.9002 71.6999 70.6002 71.3999C70.4002 71.1999 69.9002 71.1999 69.2002 71.1999H68.4002ZM66.2002 78.2999C65.0002 78.2999 63.6002 76.7999 63.6002 75.4999C63.6002 74.7999 64.2002 73.8999 64.6002 73.8999C64.7002 73.8999 64.8002 73.9999 64.9002 74.2999C65.1002 75.9999 66.3002 76.9999 67.4002 77.4999C67.5002 77.5999 67.6002 77.5999 67.6002 77.6999C67.5002 77.9999 66.8002 78.2999 66.2002 78.2999ZM70.6002 74.9999C70.6002 75.4999 70.3002 76.0999 69.7002 76.0999C68.4002 76.0999 67.4002 74.1999 67.3002 73.0999C67.3002 72.3999 67.7002 72.3999 68.3002 72.3999C68.6002 72.3999 68.7002 72.3999 68.9002 72.4999C69.2002 72.6999 69.2002 73.3999 69.6002 73.8999C69.9002 74.2999 70.6002 74.6999 70.6002 74.9999ZM73.4002 73.3999C73.4002 74.1999 74.1002 74.7999 74.9002 74.7999C75.7002 74.7999 76.4002 74.1999 76.4002 73.3999C76.4002 72.5999 75.7002 71.9999 74.9002 71.9999C74.1002 71.8999 73.4002 72.5999 73.4002 73.3999ZM72.9002 71.5999C73.7002 71.5999 74.4002 70.9999 74.4002 70.1999C74.4002 69.3999 73.7002 68.7999 72.9002 68.7999C72.1002 68.7999 71.4002 69.3999 71.4002 70.1999C71.5002 70.8999 72.1002 71.5999 72.9002 71.5999ZM62.8002 70.8999C64.1002 70.8999 65.2002 70.0999 65.2002 70.0999C63.0002 69.4999 61.8002 67.9999 61.8002 65.8999V65.2999C60.4002 65.8999 59.8002 66.9999 59.8002 68.0999C59.9002 69.7999 61.2002 70.8999 62.8002 70.8999ZM69.3002 69.2999C69.5002 68.6999 69.6002 67.9999 69.6002 67.1999C69.6002 65.4999 68.8002 62.8999 66.2002 62.8999C64.7002 62.8999 63.7002 63.9999 63.7002 65.2999C63.8002 68.1999 66.8002 69.2999 69.3002 69.2999Z" fill="#11109C"/>
<path fill-rule="evenodd" clip-rule="evenodd" d="M151.5 68.4C149.9 71.6 145.9 72.3 144.6 72.1C145 75.4 149.9 79.8 151.2 79.7C152.1 79.6 152.4 75.4 152.4 72.1C152.4 70.2 152.5 68.7 151.5 68.4ZM151.6 65.3C151.6 64.1 151.1 63.2 149.7 63C149.9 63.3 150 63.6 150 64.1C150 66 147.2 68.1 144.1 68.1C143 68.1 142.6 68.9 142.7 69.3C142.7 70.3 143.6 70.7 144.9 70.7C148.4 70.6 151.6 67.8 151.6 65.3Z" fill="#11109C"/>
<path fill-rule="evenodd" clip-rule="evenodd" d="M144.1 66.8C145.5 66.8 148.5 65.6 148.5 64C148.5 63.5 148.3 63 147.5 63C146.4 63 144.9 64.1 143.4 64.1C142.9 64.1 142.3 64.1 141.7 63.9C142.3 64.3 142.2 65.3 142.5 66C143 66.8 143.6 66.8 144.1 66.8Z" fill="#11109C"/>
<path fill-rule="evenodd" clip-rule="evenodd" d="M125.3 67.6001C125.3 70.8001 123.1 72.1001 121.1 72.1001C120.6 72.1001 120.2 72.0001 119.8 71.8001C120.2 71.4001 120.6 70.8001 120.6 70.4001C120.6 70.1001 120.4 70.0001 120.1 70.0001C119.9 70.0001 119.4 70.1001 119 70.1001C118 70.1001 117.2 69.7001 116.3 68.8001C115.7 69.7001 115.4 70.9001 115.4 72.1001C115.4 74.0001 116.1 75.9001 116.9 76.0001C117.3 76.0001 117.3 74.7001 118 74.7001C118.2 74.7001 119 75.3001 120.7 75.3001C123.2 75.3001 126 73.8001 126 69.9001C125.9 69.4001 125.7 68.2001 125.3 67.6001Z" fill="#11109C"/>
<path fill-rule="evenodd" clip-rule="evenodd" d="M119.6 65.6C120.1 65.6 121.1 65.8 121.4 66.3C121 66.5 120.6 67 120.6 67.4C120.6 67.6 120.7 67.8 120.9 67.9C121.8 68.3 122.3 69 122.6 69.6C124.2 68.7 124.8 66.2 124.8 64.8C124.8 64.4 124.8 63.8 124.4 63.8C124.1 63.8 123.8 64.2 123.4 64.2C123.1 64.2 122.2 63 120 63C117.5 63 116.4 64.9 116.4 66.5C116.4 66.9 116.5 67.4 116.6 67.7C117.1 66.7 118.1 65.6 119.6 65.6Z" fill="#11109C"/>
<path fill-rule="evenodd" clip-rule="evenodd" d="M94.2998 67.6998C92.4998 67.6998 90.8998 69.1998 89.6998 71.1998C89.7998 70.7998 89.7998 70.3998 89.7998 69.9998C89.7998 67.1998 88.2998 64.7998 85.5998 64.7998C83.3998 64.7998 81.2998 66.0998 80.4998 68.6998C80.6998 68.4998 81.4998 67.9998 82.0998 67.9998C82.7998 67.9998 82.9998 68.5998 82.9998 69.5998C82.9998 70.1998 82.8998 70.9998 82.5998 71.6998C82.1998 72.8998 81.3998 73.1998 80.9998 73.1998C79.2998 73.1998 80.0998 70.2998 79.1998 70.2998C78.4998 70.2998 78.2998 71.8998 78.2998 72.4998C78.2998 74.4998 79.5998 76.5998 82.4998 76.5998C85.5998 76.5998 87.2998 75.0998 89.0998 73.1998C89.4998 75.2998 90.5998 78.9998 93.6998 78.9998C95.3998 78.9998 96.5998 77.5998 96.6998 75.8998C96.4998 76.0998 96.1998 76.2998 95.7998 76.2998C95.1998 76.2998 94.9998 75.3998 94.9998 74.5998C94.9998 73.2998 95.3998 71.8998 95.9998 71.8998C96.2998 71.8998 96.4998 72.0998 96.5998 73.0998C96.6998 73.7998 96.5998 74.6998 97.0998 74.6998C97.5998 74.6998 97.7998 73.1998 97.7998 72.2998C97.6998 69.6998 96.5998 67.5998 94.2998 67.6998ZM83.9998 74.4998C83.6998 74.4998 83.5998 74.1998 83.5998 73.9998C83.5998 72.5998 85.0998 66.3998 86.1998 66.3998C86.3998 66.3998 86.4998 66.5998 86.4998 66.8998C86.4998 67.9998 85.1998 74.4998 83.9998 74.4998ZM88.5998 71.7998C87.6998 72.7998 87.1998 73.2998 86.7998 73.2998C86.5998 73.2998 86.3998 72.8998 86.3998 72.4998C86.3998 71.7998 86.8998 68.8998 87.9998 68.8998C88.3998 68.8998 88.6998 69.6998 88.6998 70.3998C88.6998 70.9998 88.6998 71.3998 88.5998 71.7998ZM90.6998 74.2998C90.3998 74.2998 90.0998 73.6998 90.0998 72.4998C90.6998 71.4998 90.9998 71.0998 91.3998 71.0998C91.4998 71.0998 91.6998 71.1998 91.6998 71.7998C91.5998 73.0998 91.0998 74.2998 90.6998 74.2998ZM92.4998 76.3998C92.2998 76.3998 92.0998 76.0998 92.0998 75.2998C92.0998 73.3998 93.2998 69.8998 93.9998 69.8998C94.1998 69.8998 94.2998 70.3998 94.2998 70.8998C94.3998 72.9998 93.3998 76.3998 92.4998 76.3998Z" fill="#11109C"/>
<path fill-rule="evenodd" clip-rule="evenodd" d="M138.4 63.5999C137.7 63.5999 136.6 64.3999 135.8 64.3999C134.7 64.3999 135 62.8999 133.8 62.8999C133.5 62.8999 133.2 62.9999 132.9 63.1999C130.4 64.4999 128.4 63.9999 128 64.2999C127.9 64.3999 127.8 64.3999 127.8 64.6999C127.8 67.4999 130.6 71.6999 135.2 71.6999C138.4 71.6999 141 70.5999 141 68.6999C140.9 67.0999 139.4 63.5999 138.4 63.5999ZM135.5 68.9999C132.9 68.9999 131.3 67.4999 131.3 66.5999C131.3 66.4999 131.4 66.3999 131.5 66.3999C131.9 66.3999 133 66.9999 134.5 67.1999C136.2 67.4999 137.1 67.4999 137.6 67.4999C138.1 67.4999 138.3 67.5999 138.3 67.7999C138.2 68.2999 137 68.9999 135.5 68.9999Z" fill="#11109C"/>
<path fill-rule="evenodd" clip-rule="evenodd" d="M152.4 46.7998C150.6 46.7998 150.4 46.2998 149.2 46.2998C147.8 46.2998 146.8 47.2998 146.8 48.7998C146.8 49.2998 147 50.0998 147 51.0998C147 52.2998 146.8 53.4998 145.7 53.4998C144.7 53.4998 144.3 52.7998 144.3 51.9998C144.3 50.5998 145 49.5998 145 48.6998C145 46.9998 143 46.4998 140.8 46.4998C138.2 46.4998 135.4 47.1998 135.4 47.5998C135.4 48.1998 139.1 47.7998 141.8 51.2998C140.1 51.2998 136.8 52.0998 136.8 52.5998C136.8 53.1998 142.8 53.7998 142.8 56.2998C142.8 57.8998 141.5 58.0998 141 58.0998C139 58.0998 138 55.9998 137.5 55.9998C137.4 55.9998 137.2 56.0998 137.2 56.2998C137.2 56.5998 137.5 57.4998 137.5 58.3998C137.5 60.6998 135 60.8998 135 61.3998C135 61.5998 135.1 61.5998 135.4 61.6998C137.2 61.9998 139.1 62.0998 140.8 62.0998C147.2 62.0998 152.3 60.0998 152.3 54.4998C152.3 51.3998 151.3 50.3998 151.3 48.8998C151.1 48.3998 151.5 47.2998 152.4 46.7998ZM143.5 58.9998H142.2C146.3 58.2998 148.6 55.8998 148.6 52.6998C149.5 52.9998 150.1 53.8998 150.1 54.8998C150 56.7998 148.3 58.9998 143.5 58.9998ZM149.2 49.2998C148.7 49.2998 148.3 48.8998 148.3 48.3998C148.3 47.8998 148.7 47.4998 149.2 47.4998C149.7 47.4998 150.1 47.8998 150.1 48.3998C150.1 48.8998 149.7 49.2998 149.2 49.2998Z" fill="#11109C"/>
<path fill-rule="evenodd" clip-rule="evenodd" d="M127.5 45.5999C125.1 45.5999 123.3 46.7999 122.3 46.7999C121.7 46.7999 120.9 45.3999 120.4 45.3999C120.2 45.3999 120 45.7999 120 46.3999V46.5999C120 47.0999 119.9 47.9999 119.6 47.9999C118.7 47.9999 115.3 45.5999 115.3 46.3999C115.3 47.1999 117.6 49.6999 117.6 50.2999C117.6 50.8999 115.4 51.4999 115.4 51.9999C115.4 52.7999 117.8 52.8999 117.8 53.8999C117.8 54.8999 115.3 55.6999 115.3 56.3999C115.3 56.9999 117.8 56.5999 117.8 57.2999C117.8 57.9999 116 60.4999 116 61.1999C116 61.3999 116 61.3999 116.2 61.3999C116.9 61.3999 119 59.0999 119.5 59.0999C120.1 59.0999 120.2 60.4999 120.3 61.2999C120.4 61.6999 120.4 61.7999 120.6 61.7999C121 61.7999 121.7 60.1999 122.2 60.1999C122.9 60.1999 124.7 62.0999 127.8 62.0999C132.2 62.0999 136.3 59.0999 136.3 53.7999C136.4 48.5999 132.6 45.5999 127.5 45.5999ZM121.4 56.9999C121.3 56.9999 121.2 56.8999 121.2 56.6999L121.1 55.2999C121.1 55.1999 121 54.9999 120.8 54.9999H119.3C119.1 54.9999 119 54.9999 119 54.8999C119 54.5999 120.5 53.5999 120.5 53.3999C120.5 52.9999 119.1 52.2999 119.1 51.7999C119.1 51.6999 119.2 51.6999 119.3 51.6999C119.7 51.6999 120.4 51.7999 120.9 51.7999C121.4 51.7999 121.4 49.7999 121.8 49.7999C122.1 49.7999 122.5 51.6999 122.9 51.6999C123.4 51.6999 124.2 51.1999 124.6 51.1999C124.7 51.1999 124.7 51.1999 124.7 51.2999C124.7 51.4999 123.8 52.4999 123.8 52.7999C123.8 53.0999 125.8 53.4999 125.8 53.7999C125.8 54.1999 123.7 54.0999 123.7 54.3999C123.7 54.5999 124.5 55.5999 124.5 55.9999C124.5 56.0999 124.5 56.0999 124.4 56.0999C124.1 56.0999 123 55.5999 122.7 55.5999C122.3 55.5999 121.7 56.9999 121.4 56.9999ZM127.6 60.0999C125.1 60.0999 123.4 58.8999 123.4 58.1999C123.4 57.8999 123.6 57.6999 123.9 57.6999C124.7 57.6999 126.4 58.8999 127 58.8999C127.1 58.8999 127.3 58.7999 127.3 58.5999C127.3 57.9999 126.7 56.8999 126.7 56.3999C126.7 56.2999 126.8 56.1999 127 56.1999C128 56.1999 129.4 56.5999 130.2 56.5999C130.5 56.5999 130.5 56.4999 130.5 56.2999C130.5 55.4999 128.1 53.9999 128.1 53.4999C128.1 53.0999 131 52.3999 131 51.7999C131 51.0999 127 51.5999 127 50.8999C127 50.3999 127.8 49.5999 127.8 49.1999C127.8 48.9999 127.7 48.9999 127.4 48.9999C127.1 48.9999 125.3 49.6999 124.6 49.6999C124.2 49.6999 123.8 49.5999 123.8 49.0999C123.8 48.2999 125.2 47.3999 127.4 47.3999C131 47.3999 133.1 49.7999 133.1 53.7999C133.2 58.7999 129.6 60.0999 127.6 60.0999Z" fill="#11109C"/>
<path fill-rule="evenodd" clip-rule="evenodd" d="M89.6001 55.8001C91.0001 55.8001 95.2001 57.7001 97.1001 57.7001C97.8001 57.7001 98.2001 57.3001 98.2001 56.9001C98.2001 54.7001 92.3001 50.8001 92.2001 49.2001C92.2001 49.0001 92.3001 48.9001 92.4001 48.8001C93.4001 47.7001 97.6001 47.0001 97.6001 46.1001C97.6001 45.6001 96.7001 45.6001 96.3001 45.6001C92.9001 45.6001 88.0001 46.8001 88.0001 48.0001C88.0001 49.2001 92.4001 52.2001 92.4001 53.7001C92.4001 54.1001 92.1001 54.2001 91.7001 54.2001C90.5001 54.2001 87.8001 52.7001 86.5001 52.7001C85.9001 52.7001 85.7001 53.1001 85.7001 53.7001C85.7001 55.4001 87.8001 58.7001 87.8001 59.7001C87.8001 59.8001 87.8001 60.0001 87.6001 60.0001C86.9001 60.0001 83.9001 56.4001 82.8001 56.4001C82.4001 56.4001 82.4001 56.9001 82.4001 57.7001V58.9001C82.4001 59.7001 82.4001 60.2001 82.0001 60.2001C81.1001 60.2001 80.6001 57.6001 79.7001 57.6001C78.8001 57.6001 78.6001 62.3001 77.7001 62.3001C76.6001 62.3001 77.5001 57.2001 76.5001 57.2001C75.4001 57.2001 74.1001 60.6001 73.3001 60.6001C73.0001 60.6001 72.9001 60.3001 72.9001 60.1001C72.9001 59.1001 73.5001 57.4001 73.5001 56.4001C73.5001 55.9001 73.4001 55.6001 72.9001 55.6001C71.8001 55.6001 69.3001 57.4001 68.4001 57.4001C68.3001 57.4001 68.1001 57.3001 68.1001 57.2001C68.1001 56.3001 72.1001 53.6001 72.1001 52.4001C72.1001 51.2001 66.6001 52.0001 66.6001 50.6001C66.6001 49.5001 70.5001 48.3001 70.5001 47.1001C70.5001 46.1001 65.9001 45.6001 64.1001 45.6001C62.0001 45.6001 60.8001 45.9001 60.8001 46.5001C60.8001 47.4001 65.7001 47.7001 65.7001 48.5001C65.7001 49.3001 60.6001 51.4001 60.6001 52.6001C60.6001 53.7001 67.7001 52.7001 67.7001 53.8001C67.7001 55.0001 61.5001 60.3001 61.5001 62.1001C61.5001 62.5001 61.8001 62.7001 62.2001 62.7001C64.1001 62.7001 69.0001 59.1001 70.3001 59.1001C70.8001 59.1001 70.8001 59.7001 70.8001 60.2001C70.8001 61.1001 70.5001 62.6001 70.5001 63.6001C70.5001 64.4001 70.7001 65.0001 71.4001 65.0001C72.7001 65.0001 74.0001 62.7001 74.9001 62.7001C76.1001 62.7001 75.4001 69.3001 77.1001 69.3001C78.6001 69.3001 79.2001 62.1001 80.1001 62.1001C81.0001 62.1001 81.8001 64.2001 82.7001 64.2001C83.8001 64.2001 83.3001 60.6001 84.4001 60.6001C85.7001 60.6001 89.3001 64.9001 91.0001 64.9001C91.5001 64.9001 91.7001 64.5001 91.7001 64.0001C91.7001 62.1001 89.0001 57.8001 89.0001 56.4001C89.1001 55.9001 89.2001 55.8001 89.6001 55.8001Z" fill="#11109C"/>
<path fill-rule="evenodd" clip-rule="evenodd" d="M91.9003 58.3002C91.8003 58.3002 91.7003 58.4002 91.7003 58.5002C91.7003 59.8002 96.3003 65.9002 97.1003 65.9002C97.8003 65.9002 98.4003 64.6002 98.4003 63.6002C98.4003 63.3002 98.3003 63.0002 98.2003 62.8002C97.5003 61.8002 92.9003 58.3002 91.9003 58.3002ZM65.0003 54.8002C65.0003 54.5002 64.4003 54.4002 63.9003 54.4002C63.1003 54.4002 62.0003 54.6002 61.5003 55.0002C61.1003 55.3002 60.8003 56.3002 60.8003 57.0002C60.8003 57.4002 60.9003 57.8002 61.3003 57.8002C62.2003 57.9002 65.0003 55.5002 65.0003 54.8002ZM71.5003 50.3002C72.3003 50.3002 73.6003 49.9002 74.5003 49.9002C75.0003 49.9002 75.5003 50.0002 75.5003 50.5002C75.5003 51.4002 73.5003 53.0002 73.5003 53.7002C73.5003 53.9002 73.7003 54.0002 73.9003 54.0002C74.6003 54.0002 75.9003 52.2002 77.0003 52.2002C78.9003 52.2002 77.7003 56.3002 78.7003 56.3002C79.8003 56.3002 79.3003 52.3002 80.9003 52.3002C82.2003 52.3002 83.1003 55.1002 84.0003 55.1002C84.2003 55.1002 84.4003 54.9002 84.4003 54.7002C84.4003 53.9002 83.3003 52.4002 83.3003 51.4002C83.3003 50.8002 83.7003 50.5002 84.3003 50.5002C85.1003 50.5002 86.3003 51.0002 86.9003 51.0002C87.1003 51.0002 87.3003 50.9002 87.3003 50.7002C87.3003 49.8002 84.1003 48.9002 84.1003 47.8002C84.1003 46.7002 85.9003 46.7002 85.9003 46.2002C85.9003 46.0002 84.8003 45.8002 83.3003 45.8002C80.9003 45.8002 81.3003 47.7002 79.4003 47.7002C77.5003 47.7002 78.0003 45.7002 75.6003 45.7002C74.1003 45.7002 72.8003 46.0002 72.8003 46.3002C72.8003 46.7002 74.5003 46.5002 74.5003 47.7002C74.5003 49.0002 70.8003 49.3002 70.8003 50.1002C70.8003 50.2002 71.1003 50.3002 71.5003 50.3002ZM94.4003 49.8002C94.4003 50.4002 96.7003 51.8002 97.7003 51.8002C98.3003 51.8002 98.5003 51.0002 98.5003 50.1002C98.5003 49.0002 98.0003 49.0002 97.1003 49.0002C95.9003 49.0002 94.4003 49.3002 94.4003 49.8002Z" fill="#11109C"/>
</svg>
