<svg width="50" height="26" viewBox="0 0 50 26" fill="none" xmlns="http://www.w3.org/2000/svg">
<path d="M38.8393 0.57806L35.2784 15.1178L31.7059 0.57806H21.2292V5.94669C19.971 1.24817 15.5326 0.0676902 11.4203 0.00145899C6.41108 -0.0647723 1.15718 2.11307 0.963021 8.75957H7.89444C7.89444 6.75315 9.42828 5.60384 11.1563 5.63111C13.2765 5.61553 14.255 6.52329 14.3055 7.94142C14.2317 9.16864 13.5095 10.0258 11.1718 10.0258H8.84193V14.8528H10.9582C12.1581 14.8528 13.8318 15.5074 13.8978 17.2255C13.9793 19.2709 12.5581 20.1747 10.8146 20.1903C7.6964 20.0773 7.19159 17.6696 7.19159 15.6048H0C0.0310652 16.9956 -0.310652 26.0654 10.966 25.9992C16.3675 26.0498 20.138 23.7707 21.2447 20.6305V25.4421H28.3431V9.76083L32.1796 25.4459H38.381L42.2331 9.77641V25.4615H49.3121V0.57806H38.8393ZM21.2486 15.0827C20.3671 13.2477 19.1245 12.4451 18.4217 12.1919C19.8895 11.5374 20.6622 10.6491 21.2486 8.87645V15.0827Z" fill="#FF0000"/>
</svg>
