<svg xmlns="http://www.w3.org/2000/svg" viewBox="0 0 192.76 192.76"><defs><style>.cls-1{fill:#fff;}.cls-1,.cls-2,.cls-3{fill-rule:evenodd;}.cls-2,.cls-3{fill:#ed1c24;}.cls-2{stroke:#ed1c24;stroke-miterlimit:2.61;stroke-width:0.31px;}</style></defs><g id="Layer_2" data-name="Layer 2"><g id="Layer_1-2" data-name="Layer 1"><polygon class="cls-1" points="0 0 192.76 0 192.76 192.76 0 192.76 0 0 0 0"/><polygon class="cls-2" points="8.5 74.84 184.25 74.84 170.4 117.92 8.5 117.92 8.5 74.84 8.5 74.84"/><path class="cls-1" d="M39.79,105.29c-.32-3.12-.21-1.79-.53-4.08C13.35,108.08,26.8,77,44.74,84.75a31.14,31.14,0,0,1,3.31-3.54c-28.33-11.63-47.24,33-8.26,24.08Z"/><path class="cls-1" d="M40.29,98c.57-5.79,7.19-10.66,13-10.66,8.23,0,11.54,3.79,10.68,8.41-1.14,6.12-6.73,10.73-14.06,10.62-5.84-.07-10.18-2.68-9.65-8.37Z"/><path class="cls-3" d="M47.23,96.38c.93-3.65,4.63-6.19,7.12-5.91,2.92,0,4,2.37,2.6,7.23-.78,3.22-4.34,6-7.33,5.4-2.95-1.28-3.31-2.64-2.39-6.72Z"/><path class="cls-1" d="M93.55,87.29,93,88.4c-18.12-9.16-31.93,26.76-5.19,15.92.07.39-6,9.63-17.91,4.47L68,112.55c25.77,5.22,25.81-9,31.68-25.15-4.8,0-6.12-.11-6.12-.11Z"/><path class="cls-3" d="M79.49,99.42c.25-3.54,4.3-7.87,6.3-8.3s4.63-1,6,.64c-1.71,8-6.12,11.09-9.19,11-2.1,0-2.88-.61-3.09-3.33Z"/><path class="cls-1" d="M102.59,91.8l1.57-4.15c17.9-3.44,22.49.36,16.09,12.27-1.07,2.83-1.32,3.65-1,6.33-4,0-6.91,0-6.91,0v-1.36s-15.66,6.12-14.63-4.12c1-10,15.63-6.58,18.94-7.62.46-5.4-14.06-1.39-14.06-1.39Z"/><path class="cls-3" d="M114.8,97c-16.45-1.5-11.78,9.81-1.25,4,.93-2.55,1-3.33,1.25-4Z"/><path class="cls-1" d="M126.12,89.94h-2.85l1.07-3.11h3l1.74-4.48L136,81.14l-2,5.65h6.83l-1.17,3.11-6.84,0s-4,9.48-4,9.8-2.14,4.87,4.73,2.22a21.2,21.2,0,0,0,.25,3.18s-16.12,5.48-11.17-6.54c3.16-7.7,3.52-8.66,3.52-8.66Z"/><path class="cls-1" d="M144.52,96.88c5.42,0,10.72-.11,14.49-.11.5-1.64,3.71-12.31-10.11-10.66-14.7,1.79-17.33,27.87,8.55,18.1L155.88,101s-11.36,5.66-11.36-4.11Z"/><path class="cls-3" d="M153.64,93.52c2.13-3.65-4.42-7.48-7.94,0Z"/><polygon class="cls-1" points="71.69 80.89 77.99 80.89 68.74 106.4 62.58 106.4 71.69 80.89 71.69 80.89"/><path class="cls-1" d="M165.35,84a3.64,3.64,0,0,1,1.6.4,3,3,0,0,1,1.21,1.21,3.3,3.3,0,0,1,0,3.26A2.93,2.93,0,0,1,167,90.08a3.12,3.12,0,0,1-1.6.43,3.32,3.32,0,0,1-1.6-.43,3.18,3.18,0,0,1-1.18-1.18,3.37,3.37,0,0,1,0-3.26,2.88,2.88,0,0,1,1.21-1.21,3.55,3.55,0,0,1,1.57-.4Zm0,.54a2.63,2.63,0,0,0-1.32.36,2.18,2.18,0,0,0-1,1,2.67,2.67,0,0,0,0,2.68,2.41,2.41,0,0,0,1,1,2.54,2.54,0,0,0,1.32.35,2.64,2.64,0,0,0,1.35-.35,2.69,2.69,0,0,0,1-1,2.74,2.74,0,0,0,0-2.68,2.17,2.17,0,0,0-1-1,2.55,2.55,0,0,0-1.32-.36Zm-1.42,4.51V85.57h1.21a2.63,2.63,0,0,1,.89.11,1,1,0,0,1,.42.32.93.93,0,0,1,.18.5.94.94,0,0,1-.28.68,1.17,1.17,0,0,1-.72.32.84.84,0,0,1,.29.18,4.92,4.92,0,0,1,.53.68l.39.72h-.67l-.29-.57a4.47,4.47,0,0,0-.6-.83.83.83,0,0,0-.46-.1h-.32v1.5Zm.57-2h.67a1.29,1.29,0,0,0,.68-.14.53.53,0,0,0,.1-.68.72.72,0,0,0-.24-.18,1.75,1.75,0,0,0-.57-.07h-.64v1.07Z"/></g></g></svg>